Coordinates
version=1
nRows=32
nColumns=18
inDegrees=yes

Units are S.I. units (second, meters, Newtons, ...)
If the header above contains a line with 'inDegrees', this indicates whether rotational values are in degrees (yes) or radians (no).

endheader
time	ground_thorax_rot_x	ground_thorax_rot_y	ground_thorax_rot_z	ground_thorax_tx	ground_thorax_ty	ground_thorax_tz	clav_prot	clav_elev	scapula_abduction	scapula_elevation	scapula_upward_rot	scapula_winging	plane_elv	shoulder_elv	axial_rot	elbow_flexion	pro_sup
      3.24000000	      3.11102171	     -6.87206248	     -8.61157265	     -0.00566992	      0.00380510	      0.00308206	    -22.31179063	     -4.15107707	    -14.19358528	     -2.87289346	      9.21915597	      6.30112764	    -28.01654000	     16.71871235	     48.00523860	      0.00000000	     34.32000000
      3.25000000	      3.08149548	     -6.86713375	     -8.61688188	     -0.00563059	      0.00383452	      0.00301237	    -22.31552859	     -4.13852009	    -14.18948442	     -2.87057208	      9.24484216	      6.29113580	    -28.01594603	     16.74155624	     48.00710740	      0.00000000	     34.32000000
      3.26000000	      3.08061103	     -6.86678602	     -8.61719339	     -0.00558946	      0.00396768	      0.00299952	    -22.31544324	     -4.13798961	    -14.18931673	     -2.87023756	      9.24513389	      6.29090594	    -28.01586176	     16.74143112	     48.00710332	      0.00000000	     34.32000000
      3.27000000	      3.08002925	     -6.86668113	     -8.61739266	     -0.00556667	      0.00407162	      0.00293566	    -22.31532106	     -4.13755506	    -14.18922618	     -2.86988926	      9.24511819	      6.29078058	    -28.01578953	     16.74080528	     48.00707029	      0.00000000	     34.32000000
      3.28000000	      2.99273245	     -6.85543778	     -8.60389036	     -0.00566320	      0.00399453	      0.00280851	    -22.29456206	     -4.08474488	    -14.17561391	     -2.82325164	      9.22906689	      6.27895298	    -28.01512100	     16.58265305	     47.99728728	      0.00000000	     34.32000000
      3.29000000	      2.99303420	     -6.85645904	     -8.60430984	     -0.00567068	      0.00402172	      0.00271610	    -22.29467984	     -4.08444777	    -14.17609108	     -2.82292719	      9.22870409	      6.27896761	    -28.01535286	     16.58221214	     47.99725502	      0.00000000	     34.32000000
      3.30000000	      2.98807196	     -6.92732858	     -8.60370473	     -0.00560884	      0.00394348	      0.00283419	    -22.31542915	     -4.05892972	    -14.20665588	     -2.81067795	      9.25110060	      6.26695610	    -28.03342193	     16.55713757	     47.99595578	      0.00000000	     34.32000000
      3.31000000	      2.99051852	     -6.95479081	     -8.61963521	     -0.00566991	      0.00385930	      0.00295880	    -22.32276885	     -4.04358179	    -14.21727003	     -2.80238545	      9.26238666	      6.26001611	    -28.04262144	     16.57765508	     47.99674823	      0.00000000	     34.32000000
      3.32000000	      2.99921699	     -7.00120314	     -8.63129164	     -0.00577534	      0.00384523	      0.00306205	    -22.33194864	     -4.02730732	    -14.23240358	     -2.79297333	      9.27179730	      6.25346882	    -28.05499214	     16.60065231	     47.99643952	      0.00000000	     34.32000000
      3.33000000	      3.01310411	     -7.07078577	     -8.62017597	     -0.00582876	      0.00391003	      0.00311844	    -22.34172733	     -4.01366094	    -14.24713204	     -2.78600232	      9.28254865	      6.24730162	    -28.06962763	     16.60391287	     47.99429134	      0.00000000	     34.32000000
      3.34000000	      3.01383811	     -7.07200395	     -8.62028026	     -0.00585269	      0.00394388	      0.00298768	    -22.34178242	     -4.01358844	    -14.24750412	     -2.78581608	      9.28207131	      6.24740656	    -28.06985111	     16.60326805	     47.99423833	      0.00000000	     34.32000000
      3.35000000	      3.01449565	     -7.07201951	     -8.61928356	     -0.00575133	      0.00393544	      0.00291807	    -22.34169730	     -4.01399354	    -14.24734524	     -2.78607549	      9.28189564	      6.24756184	    -28.06977359	     16.60223660	     47.99419669	      0.00000000	     34.32000000
      3.36000000	      3.00454278	     -7.06999017	     -8.58260730	     -0.00577405	      0.00399362	      0.00291860	    -22.34345849	     -4.02276323	    -14.23740932	     -2.79851117	      9.30171486	      6.24500719	    -28.06146779	     16.57817762	     47.99387720	      0.00000000	     34.32000000
      3.37000000	      2.97226722	     -7.08955196	     -8.56610535	     -0.00577951	      0.00400764	      0.00294999	    -22.34998844	     -4.00729982	    -14.23420328	     -2.79654593	      9.33612140	      6.23209202	    -28.05595631	     16.56670547	     47.99328513	      0.00000000	     34.32000000
      3.38000000	      2.97118105	     -7.08987872	     -8.56664722	     -0.00582067	      0.00409698	      0.00298313	    -22.35007852	     -4.00662398	    -14.23427085	     -2.79616552	      9.33661318	      6.23177931	    -28.05593452	     16.56694569	     47.99329074	      0.00000000	     34.32000000
      3.39000000	      2.97086407	     -7.09126553	     -8.56729075	     -0.00588031	      0.00415738	      0.00288755	    -22.35025740	     -4.00602792	    -14.23480363	     -2.79568050	      9.33649012	      6.23165123	    -28.05609301	     16.56667184	     47.99325644	      0.00000000	     34.32000000
      3.40000000	      2.90184510	     -7.23756241	     -8.52366047	     -0.00584390	      0.00409127	      0.00293841	    -22.36630111	     -3.96627494	    -14.26544134	     -2.76980997	      9.35057653	      6.21756926	    -28.05503438	     16.44395235	     47.98853490	      0.00000000	     34.32000000
      3.41000000	      2.90255124	     -7.23910409	     -8.52445272	     -0.00595307	      0.00408734	      0.00283433	    -22.36638592	     -3.96605964	    -14.26593660	     -2.76949761	      9.35003670	      6.21765177	    -28.05529563	     16.44360957	     47.98853990	      0.00000000	     34.32000000
      3.42000000	      2.90295558	     -7.23980735	     -8.52459635	     -0.00598709	      0.00403220	      0.00284401	    -22.36642564	     -3.96608653	    -14.26604294	     -2.76949780	      9.34995430	      6.21768227	    -28.05537288	     16.44356867	     47.98858965	      0.00000000	     34.32000000
      3.43000000	      2.90315753	     -7.23966241	     -8.52424204	     -0.00595182	      0.00395748	      0.00291409	    -22.36640637	     -3.96630716	    -14.26576702	     -2.76976284	      9.35029586	      6.21765522	    -28.05525186	     16.44379608	     47.98868168	      0.00000000	     34.32000000
      3.44000000	      2.90286475	     -7.23928030	     -8.52406637	     -0.00592777	      0.00392395	      0.00300532	    -22.36641669	     -3.96633793	    -14.26539263	     -2.76998593	      9.35100694	      6.21748106	    -28.05504503	     16.44444683	     47.98880641	      0.00000000	     34.32000000
      3.45000000	      2.89775772	     -7.25275682	     -8.53119871	     -0.00594665	      0.00391062	      0.00303392	    -22.37079716	     -3.95929345	    -14.25791733	     -2.77354159	      9.38231427	      6.20763022	    -28.04764396	     16.47987664	     47.99501823	      0.00000000	     34.32000000
      3.46000000	      2.89789744	     -7.25390403	     -8.53209499	     -0.00607027	      0.00393771	      0.00305444	    -22.37092891	     -3.95891230	    -14.25819537	     -2.77328066	      9.38240784	      6.20750505	    -28.04777978	     16.48052423	     47.99508147	      0.00000000	     34.32000000
      3.47000000	      2.93175754	     -7.31720014	     -8.54529106	     -0.00604267	      0.00392852	      0.00313911	    -22.37635717	     -3.95392297	    -14.26942724	     -2.76948368	      9.38146448	      6.20658285	    -28.05217727	     16.49922340	     47.99866289	      0.00000000	     34.32000000
      3.48000000	      2.93225432	     -7.31826240	     -8.54517141	     -0.00612871	      0.00387990	      0.00312031	    -22.37652002	     -3.95410056	    -14.26953143	     -2.76969952	      9.38171217	      6.20657890	    -28.05214980	     16.49958053	     47.99873195	      0.00000000	     34.32000000
      3.49000000	      3.02524171	     -7.47313473	     -8.50839594	     -0.00606840	      0.00401461	      0.00332229	    -22.36929664	     -3.97523002	    -14.19043809	     -2.81706603	      9.49443481	      6.18315278	    -28.01512221	     16.60008969	     48.02286698	      0.00000000	     34.32000000
      3.50000000	      3.02414524	     -7.47276281	     -8.50859842	     -0.00609701	      0.00400740	      0.00342980	    -22.36925481	     -3.97486703	    -14.19000420	     -2.81701750	      9.49527736	      6.18283185	    -28.01494836	     16.60094870	     48.02295674	      0.00000000	     34.32000000
      3.51000000	      3.00294744	     -7.47861961	     -8.51982910	     -0.00606637	      0.00400668	      0.00333684	    -22.36666489	     -3.95997391	    -14.18185135	     -2.80923081	      9.50924569	      6.17493014	    -28.01145687	     16.61461215	     48.02519993	      0.00000000	     34.32000000
      3.52000000	      3.00351925	     -7.47992624	     -8.52057788	     -0.00609251	      0.00408229	      0.00320011	    -22.36659462	     -3.95960590	    -14.18224897	     -2.80872446	      9.50846581	      6.17502481	    -28.01164643	     16.61393995	     48.02516333	      0.00000000	     34.32000000
      3.53000000	      3.01184976	     -7.52910411	     -8.53138451	     -0.00602799	      0.00405022	      0.00322789	    -22.36496917	     -3.94959113	    -14.19353195	     -2.79497790	      9.48730303	      6.17759366	    -28.01548779	     16.58991753	     48.02487007	      0.00000000	     34.32000000
      3.54000000	      3.01160306	     -7.52938557	     -8.53082472	     -0.00601170	      0.00401175	      0.00319986	    -22.36505188	     -3.94972583	    -14.19343834	     -2.79519013	      9.48767438	      6.17754127	    -28.01527730	     16.58978527	     48.02491748	      0.00000000	     34.32000000
      3.55000000	      2.98186781	     -7.53159638	     -8.51523564	     -0.00596102	      0.00402809	      0.00314263	    -22.36803888	     -3.94693708	    -14.18682466	     -2.79965568	      9.51078543	      6.17093117	    -28.00368124	     16.58698379	     48.02716646	      0.00000000	     34.32000000
